<?xml version="1.0" encoding="utf-8"?>
<!-- Generator: Adobe Illustrator 26.0.1, SVG Export Plug-In . SVG Version: 6.00 Build 0)  -->
<svg version="1.1" id="Layer_1" xmlns="http://www.w3.org/2000/svg" xmlns:xlink="http://www.w3.org/1999/xlink" x="0px" y="0px"
	 viewBox="0 0 612 792" style="enable-background:new 0 0 612 792;" xml:space="preserve">
<style type="text/css">
	.st0{opacity:0.82;fill:#76D0EE;stroke:#000000;stroke-width:0.25;stroke-miterlimit:10;enable-background:new    ;}
	.st1{opacity:0.87;fill:#6DBF54;stroke:#000000;stroke-width:0.25;stroke-miterlimit:10;enable-background:new    ;}
	.st2{font-family:'ArialMT';}
	.st3{font-size:243.7892px;}
	.st4{enable-background:new    ;}
	.st5{fill:#200112;stroke:#000000;stroke-width:0.75;stroke-miterlimit:10;}
</style>
<rect x="229" y="197.3" class="st0" width="134" height="78"/>
<rect x="296" y="236.3" class="st1" width="129" height="82"/>
<text transform="matrix(1.9702 0 0 1 82.0005 318.3267)" class="st2 st3">{</text>
<g class="st4">
	<path class="st5" d="M539.6,247.8v19.8c-10.2,0.2-18.4,1.9-24.8,5.1c-6.4,3.2-10.6,7.6-12.8,13.2c-2.1,5.5-3.2,15.1-3.4,28.6
		c-0.1,13.5-0.5,22.4-1.2,26.7c-1.2,6.9-3.4,12.4-6.6,16.5s-7.2,7.4-12,9.8c-4.7,2.5-10.8,4.4-18.2,5.7c-5,0.9-13.2,1.3-24.5,1.3
		H425v-19.1h6.1c13.7,0,22.8-1.5,27.3-4.6c4.5-3,6.7-9.9,6.7-20.5c0-20.3,0.6-33.1,1.8-38.5c2.1-9,6.3-16.2,12.7-21.6
		c6.3-5.4,15.3-9.6,26.9-12.6c-15.2-4.5-25.8-10.3-32-17.7c-6.2-7.3-9.3-19.7-9.3-37.1c0-15.8-0.3-25.2-1-28.3
		c-0.9-5.4-3.5-9.2-7.8-11.4c-4.3-2.1-12.7-3.2-25.2-3.2h-6.1v-19.1h11.1c12.9,0,22.3,0.6,28.1,1.9c8.4,1.8,15.4,4.8,21,9
		c5.5,4.2,9.1,9.5,10.8,15.9c1.6,6.4,2.5,16.9,2.7,31.5c0.1,14.6,1.3,24.7,3.4,30.2c2.1,5.6,6.4,9.9,12.8,13.2
		C521.1,246,529.4,247.7,539.6,247.8z"/>
</g>
</svg>
